<svg viewBox="0 0 277 405" xmlns="http://www.w3.org/2000/svg" xml:space="preserve" style="fill-rule:evenodd;clip-rule:evenodd;stroke-linejoin:round;stroke-miterlimit:2"><path d="M29.75 43.375c15.583-27.958 49.833-32.417 54.958-33.083 8.625-1.125 15.5-.459 19.875 0 13.5 1.416 27.75 2.916 35.75 13.916 5 6.875 5.25 14.334 5.292 16.542.042 2.625-.083 12.542-10.583 25.167-6.167 7.375-11.375 10.291-50.292 29.125-25.792 12.458-28.708 13.708-34.417 18.541-8.5 7.209-12.125 13-16.541 11.917-7.334-1.792-8.584-20.667-9.25-31.125-1.625-24.625-2.417-37.125 5.291-50.958l-.083-.042Z" style="fill:#f1c40f;fill-rule:nonzero"/><path d="M91.917 404.417h163.916s15.75-70.084 15.75-84.292c0-14.208.542-100.958-6.125-112.125-6.666-11.167-8.041-69-66.583-82.25s-95.083-8.792-118.667 7.167c-23.583 15.958-58.458 66.708-56.75 70.625 1.709 3.916-.041 29.666-.041 29.666L3.25 261.167 17.958 296s41.542 20.292 49.667 18.5c8.125-1.792 56.208 8.25 56.208 8.25l-14.291 49.708-17.625 31.959Z" style="fill:#fff;fill-rule:nonzero"/><ellipse cx="53.875" cy="214.875" rx="26.292" ry="23.333" style="fill:#fff"/><ellipse cx="167" cy="222.417" rx="39.583" ry="26.292" style="fill:#fff"/><path d="M140.708 320.875c-9.666 2.792-12.083 4.833-16.166 22.667-2.959 13.083-7.584 27.416-14.542 40.208-3.542 6.5-8.542 12.667-8.875 20.667H84.458c9.417-20.459 20.917-40 26.584-62.167 4.041-15.875 4.041-17.167-11.625-16.875-21.459.375-42.209-2.417-63.042-8.125-37.958-10.375-46.292-61.042-24.583-83.583 4.791-5 5.833-10.25 6.208-16.75 1.875-32.5 14.042-60.834 40.5-80.125 20.042-14.584 43.875-22.209 69-24.042 2.75-.208 5.542 0 8.333 0 17.25-.458 19.542-2.292 23.709-19.292 2.958-12.083 7.666-23.416 13.958-34.166 2.292-3.917 10.958-6.834 2.542-12.75-9.959-7-16.875-6.125-21.875 3.25-5.209 9.791-10.792 18.958-18.792 26.958-9.042 9.042-19.292 15.292-31.25 19.333-20.25 6.792-39.875 14.292-56.083 29.459-10.584 9.916-29.459 2.791-29.75-11.167-.5-23.417.083-38.292 5.916-56.25C34.167 27.583 65.458 1.042 99.292 0c12.625-.375 22.875 2.875 39.75 8.25C167.208 17.208 175.75 23.958 190 28.833c5.25 1.792 10.458 3.667 15.083 6.459 4.834 2.916 5.917 7.583 1.417 12.166a65.326 65.326 0 0 1-6.125 5.625C185.792 64.75 183 80.5 184.5 97.917c.917 10.458 4.208 17.875 16.042 20.458 20.291 4.417 35.875 16.75 49.416 32.083 17.125 19.375 25.292 42.292 26.084 67.667.75 24.292.75 46.292.375 72.917-.5 39.083-4.084 76.625-16.875 113.333h-12.5c-1.75-8.708 3.333-16 5.375-23.833 6.083-23.209 12.083-46.209 11.458-70.625-.75-27.709.5-55.459-.375-83.167-.75-24.375-7.542-47.25-22.333-67.125-17.542-23.542-44.084-30.458-70.5-33.792-35.334-4.458-69.709 1.334-101.417 19.875-14.833 8.667-22.458 21.792-29.167 36.25-1.541 3.375.375 5.25 3.625 5.459 5.542.291 11.125-.167 16.625.375 16.459 1.666 24.25 10.583 24.25 27.125 0 16.416-8 25.458-24.5 26.791-7.541.584-18.416 2.084-25.208-1.291-4.417-2.209-3.625-7.417-9.708-3.209-4.875 3.375-6.959 8.584-9.042 13.584-9 21.625.333 45.625 21.958 52.625 33.167 10.75 67.167 12.625 101.667 6.458 25.042-4.458 45.958-18.167 66.958-34 1.834-1.375 9.875 5.458 9.375 9.208-1.083 8.417.417-1.791 0 0-2 8.667-16.5 13.542-25 16.959M42.875 114.958C58.083 100.5 76.625 92 96.292 85.833c3.958-1.25 7.625-2.958 11.5-4.166C126.125 76 134.917 61.5 141.458 45.292c4.375-10.792.834-16.792-9.75-23.459-44.583-28.041-88.25 6.875-98.75 35.542-7.875 21.458-11.916 61.125 1.459 57.542 2.791 4.75 5.625 4.75 8.416 0l.042.041ZM76 210.708c0 3.292.083 1.917 0 .542-.167-3.042-1.792-5.208-4.333-6.625-1.709-.958-1.75-.833-3.834 6.5-4.916 17.5-19.208 21.958-32.625 10.167-1.333-1.167 0-6.25-4.166-3-.75.583-.792 2.75-.417 3.958 3.167 10.5 13.125 15.292 26.792 13.083 13.375-2.166 19.083-8.25 18.583-24.625Z" style="fill-rule:nonzero"/><path d="M166.083 248.542c-4.833 0-9.666.416-14.458-.084-16.333-1.708-24.208-11-24.208-28.041 0-17.209 7.708-26.834 23.958-28.25 10.25-.875 20.708-.834 30.958 0 16.334 1.333 24.209 10.916 24.25 28 0 17.208-7.75 26.583-23.958 28.291-5.458.584-11 .084-16.5.084h-.042Zm-.291-8.209c6.125-.583 12.5-.166 18.291-1.916 13.084-3.959 17.292-12.875 13.292-26.334-.542-1.791-2.333-4-4-4.5-4.792-1.541-3.208 3.209-3.292 4.959-.541 11-5.875 17.916-16.208 18.291-11.875.459-25.292 4.167-33.083-10.416-1.5-2.792.416-7.167-3.75-8.667-.417 3.5-.959 7-1.25 10.542-.542 6.625 2.916 10.041 8.166 13.375 7 4.458 14.292 4.125 21.792 4.625l.042.041ZM25.75 118.083c-.417 2.709 3.125-22.875 14.167-33.708 7.166-7.042 14.833-13.792 21.833-21.083 9.292-9.667 21.542-17.042 23.125-32.5.667-6.292 7.583-8.125 14-7.375 5.667.666 9.417 3.791 10.417 9.416 1.083 6.084-.417 11.5-6.584 14.209-26.958 11.875-47.833 27.25-61.5 49.416-5.958 9.667-6.666 13.75-6.458 21.667-3 4.917-5.958 4.917-8.958 0l-.042-.042Z" style="fill-rule:nonzero"/><circle cx="97.167" cy="34.875" r="5.208" style="fill:#f1c403"/></svg>